<svg aria-hidden="true" style="position: absolute; width: 0; height: 0; overflow: hidden;" version="1.1" xmlns="http://www.w3.org/2000/svg" xmlns:xlink="http://www.w3.org/1999/xlink">
<defs>
<symbol id="icon-edit-pencil" viewBox="0 0 20 20">
<path d="M12.3 3.7l4 4-12.3 12.3h-4v-4l12.3-12.3zM13.7 2.3l2.3-2.3 4 4-2.3 2.3-4-4z"></path>
</symbol>
<symbol id="icon-chevron-small-down" viewBox="0 0 20 20">
<path d="M13.418 7.859c0.271-0.268 0.709-0.268 0.978 0s0.272 0.701 0 0.969l-3.908 3.83c-0.27 0.268-0.707 0.268-0.979 0l-3.908-3.83c-0.27-0.267-0.27-0.701 0-0.969s0.709-0.268 0.978 0l3.421 3.141 3.418-3.141z"></path>
</symbol>
<symbol id="icon-search" viewBox="0 0 18 18">
<path d="M7.012 3c2.193 0 3.977 1.794 3.977 4 0 0.831-0.255 1.63-0.737 2.312l-0.392 0.553-0.55 0.393c-0.678 0.485-1.473 0.742-2.298 0.742-2.193 0-3.977-1.794-3.977-4s1.784-4 3.977-4zM7.012 1c-3.295 0-5.966 2.686-5.966 6s2.671 6 5.966 6c1.288 0 2.477-0.414 3.451-1.112l4.791 4.819c0.195 0.196 0.45 0.293 0.705 0.293s0.51-0.098 0.704-0.293c0.389-0.391 0.389-1.025 0-1.416l-4.791-4.819c0.694-0.98 1.105-2.177 1.105-3.471 0-3.314-2.671-6-5.965-6v0z"></path>
</symbol>
<symbol id="icon-delete" viewBox="0 0 24 24">
<path d="M18.984 3.984v2.016h-13.969v-2.016h3.469l1.031-0.984h4.969l1.031 0.984h3.469zM6 18.984v-12h12v12q0 0.797-0.609 1.406t-1.406 0.609h-7.969q-0.797 0-1.406-0.609t-0.609-1.406z"></path>
</symbol>
<symbol id="icon-arrow_forward_ios" viewBox="0 0 24 24">
<path d="M5.859 4.125l2.156-2.109 9.984 9.984-9.984 9.984-2.156-2.109 7.922-7.875z"></path>
</symbol>
<symbol id="icon-plus" viewBox="0 0 24 24">
<path d="M5 13h6v6c0 0.552 0.448 1 1 1s1-0.448 1-1v-6h6c0.552 0 1-0.448 1-1s-0.448-1-1-1h-6v-6c0-0.552-0.448-1-1-1s-1 0.448-1 1v6h-6c-0.552 0-1 0.448-1 1s0.448 1 1 1z"></path>
</symbol>
</defs>
</svg>
